# xmcd
#
# Track frame offsets:
#	150
#	12487
#	26260
#	43707
#	59350
#	72360
#	83852
#	94505
#	104687
#	116690
#	129927
#	141097
#	152475
#	168685
#	180310
#
# Disc length: 2539 seconds
#
# Revision: 0
# Processed by: cddbd v1.4PL0 Copyright (c) Steve Scherf et al.
# Submitted via: EasyCDDAExtractor 4.6.9.1
#
DISCID=c209e90f
DTITLE=Artiste Varies - Les Meilleurs Du Country Vol.8
DYEAR=1900
DGENRE=Country
TTITLE0=Gerard Sylveste - J'ecoute La Radio
TTITLE1=Aldei Duguay - La Chanson La Plus Triste
TTITLE2=Andre Hebert - Serment D'amour
TTITLE3=Le Virginien - Dans Mes Reves
TTITLE4=Miche - Il Ne Faut Pas Pleurer
TTITLE5=Bertrand Daraiche - Ma Gaspesie
TTITLE6=Sylvia Daraiche - Mr. Armstrong
TTITLE7=Lorraine Diotte - L'annee 70-71
TTITLE8=R. Benoit - Pour Le Fun
TTITLE9=Hal Willis - Le Chauffeur De Taxi
TTITLE10=Paul Brunelle - Le Boogie Des Prairies
TTITLE11=Miche - Reste AVec Moi
TTITLE12=Gerry King - Ecris-Moi Ou Telephone-Moi
TTITLE13=Sylvie Dube - Souviens-Toi De Moi
TTITLE14=Chabanel - Pense Un Peux A Moi
EXTD=
EXTT0=
EXTT1=
EXTT2=
EXTT3=
EXTT4=
EXTT5=
EXTT6=
EXTT7=
EXTT8=
EXTT9=
EXTT10=
EXTT11=
EXTT12=
EXTT13=
EXTT14=
PLAYORDER=
